/* XPM */
static char *_e6dd0e374234470b9070e705dd67827[] = {
/* columns rows colors chars-per-pixel */
"64 64 59 1 ",
"  c #5FB11F",
". c #60B11F",
"X c #5FB220",
"o c #63B324",
"O c #66B529",
"+ c #69B62C",
"@ c #6CB731",
"# c #6EB834",
"$ c #70B937",
"% c #74BB3B",
"& c #77BD40",
"* c #7BBE45",
"= c #7EBF49",
"- c #7EC04A",
"; c #80C14D",
": c #85C454",
"> c #87C458",
", c #8BC65C",
"< c #8DC85E",
"1 c #8EC861",
"2 c #92CA66",
"3 c #95CB6A",
"4 c #98CD6E",
"5 c #9ACE71",
"6 c #9ED077",
"7 c #A2D27C",
"8 c #A5D381",
"9 c #A9D586",
"0 c #ACD78B",
"q c #AFD88E",
"w c #B0D88F",
"e c #AFD890",
"r c #B2D992",
"t c #B6DC99",
"y c #B9DD9D",
"u c #BDDFA2",
"i c #BFE0A5",
"p c #C0E0A7",
"a c #C4E2AC",
"s c #C7E4B1",
"d c #CAE5B5",
"f c #CDE7B9",
"g c #CFE8BC",
"h c #D1E8BE",
"j c #D5EBC4",
"k c #D8ECC7",
"l c #D7ECC8",
"z c #DBEDCD",
"x c #DEEFD1",
"c c #E2F1D6",
"v c #E5F2DB",
"b c #E8F4DF",
"n c #ECF6E4",
"m c #EFF7E8",
"M c #F2F9ED",
"N c #F6FBF2",
"B c #F8FCF6",
"V c #FFFFFE",
"C c None",
/* pixels */
"CCCCCCCCCCCCCCCCCCCCCCCCCVVVVVVVVVVVVCCCCCCCCCCCCCCCCCCCCCCCCCCC",
"CCCCCCCCCCCCCCCCCCCCCVVVVVmf9,#ooo#,0fmVVCCCCCCCCCCCCCCCCCCCCCCC",
"CCCCCCCCCCCCCCCCCCVVVVBj0,&@Ooooooooo@%10jNBCCCCCCCCCCCCCCCCCCCC",
"CCCCCCCCCCCCCCCCVVVBz7$OoooO@@$*-*$@@OoooO$7zBCCCCCCCCCCCCCCCCCC",
"CCCCCCCCCCCCCCCVVBh:Ooo@$<0dcMNVVVBmcdq,$@ooO:gCCCCCCCCCCCCCCCCC",
"CCCCCCCCCCCCCVVBz,O o#3dNVVVVVVVVVVVVVVVNd2$O O>lCCCCCCCCCCCCCCC",
"CCCCCCCCCCCCVVm0O.O*9mVVVVVVVVVVBVVVVVVVVVVm9&OoO9CCCCCCCCCCCCCC",
"CCCCCCCCCCCVVz-o.%9MVVVVVVNMnlssasfkbMNVVVVVVM9$o.-sCCCCCCCCCCCC",
"CCCCCCCCCVVBs+ O<vVVVVVMvu4%OOoooooOO%4uvMVVVVVv<O +yCCCCCCCCCCC",
"CCCCCCCCVVNyO $rVVVVVmd<+ooo.oooooooo.ooO<fmVVVVVr$ O9CCCCCCCCCC",
"CCCCCCCCVBrOo*fVVVVMs*O .oooooooooooooooo.O*sMVVVVf=.O4CCCCCCCCC",
"CCCCCCCVBuO ;xVVVBz,Oo.oooooooooooooOoooooo.O>xBVVVz; o3CCCCCCCC",
"CCCCCCVVsO :vVVVNuOoooooooooooooooooooooooooo OuNVVVv;oOCCCCCCCC",
"CCCCCVVxO *zVVVm7O.ooooooooooooooooooooooooooo O7mVVVz* +CCCCCCC",
"CCCCCVm;.#fVVVn2o.oooooooooooooooooooooooooooOo o2nVVVd# %CCCCCC",
"CCCCVV0oOrVVVm2ooooooooooooOoooooooooooooooooooooo2mVVVqOo&CCCCC",
"CCCVVxOo1VVVB7o.oooooooooooooooooOooooooooooooooooo6NVVV<ooCCCCC",
"CCCVB< $cVVVyoooooooooooooooooooooooooooooooooooooootVVVc$o%CCCC",
"CCVVjoo9VVVzOXoo-:-ooOoooo#+o+@Oo+@o+@OoooOooo%:@oo OzVVV9ooCCCC",
"CCVB:o&MVVM:oo@6fhs7@ooooO64o,9#o47o39@oooooo:yn3Oooo:MVVM&X@CCC",
"CCVxoO0VVVioo+rc4$3ki@ooo+rro4s%otsors$ooooo;x8j9@ooooiVVV9OOCCC",
"CVV7X$mVVm% O4v%Ooo$l9oooO99o3t$o9uo8u@Ooooof8Ot8+oooo%mVVm$o#CC",
"CVN#o2VVVpoo%j<ooooo:z%OoO99o3y$O9yO8u@oOoo$g:oi8+ooooopVVV2oOCC",
"CVlo+fVVN-.O3goooooo+ryoo+98o3y$o0yo8u@oooo2a=oi7@oooo -NVVdOOCC",
"VV0o$NVVxOo#u7ooooooo2fOoO99o4p$owao8u#ooooqr@oi7+oooooOxVVN$o@C",
"VV,o,VVBroo&d-ooooooo:d-oO99o2t$O7to8u#ooooa6Ooi7+oooooorBVV<o@C",
"Vm%OeVVN: o*h+ooooooo;a2oO09o#*+o%%o9i$oooOd1ooi8+ooooo.:NVVqo+C",
"Vf@OfVVm@oo=hOooooooo*p3oOwwooooooOo9y@ooo:d:ooi8+oooooo@mVVfOOC",
"V0O@cVVxOoo-g$oOooooo;s:oo7aooooooooywOooo7i%ooi8+ooooooOzVVc@o%",
"V,o#MVVdooo$a7ooooooo2g@oo;h4oooooo:z2ooooi9+ooi7+ooooooodVVM@o&",
"V#O$NVByoooO3c%ooooo%g9oooo7c4oooo2z0Ooooos3oooi7+OooooooyBVN$o#",
"Voo*VVVeoooo+tj5%+%6gp+ooooO9ky66rlw+oooo%f,oooi8+ooooooOrVVB-oo",
"VXo-VVBwoOoooO0saaas0@ooooOoo:0zxw1oooooo3a=oooi8+ooooooowBVV=oo",
"Voo*VVB0ooooooO*0n8*ooooooooooOrioooooooowt@oooi8+ooooooowBVV&Xo",
"V#O$BVBtoooooooo%s@Oooooooooooo9toooooooop7ooooi7+oooooootBVB$o#",
"V<o@MVVsoooooooo;h=oooooooooooO0yOooooooOf2ooooi8+oooooooaVVM@o%",
"V0O@cVVloooooooo;f=oOoooooooooo0yooooooo:s>ooooi8+ooooooolVVc@o%",
"Vf@OfVVm+.oooooo;f=oooooooooooo0yoooOooo7i%ooooi7+oooooo+mVVfOOC",
"Cm%OrVVN-.oooooo;f*oooooooooooo0yoooooooy0Oooooi8+oooooo=MVV0oOC",
"CV,o,VVB8ooooOoo;f*ooooooooooOo0yoooooooa7oooooi8+oooooo8BVV, @C",
"CV9o$NVVlOoooooo;f*oooooooooOoo0yooo.O.O9s@ooooi7+oooooOlVVN#.@C",
"CClO+sVVm%.ooooo-f=oooooooooooO0yOooO.O.#ff:%+oi8+oooo %mVVdOOCC",
"CCN#o2VVVwoooooo;f=oooooooooooo0tooooOooo*tsf2Ou8+ooooorBVV2.+CC",
"CCV7o$mVVvOooooo;f*oooooooooooo0yooooooooO+:<%oi7+ooooObVVm@o$CC",
"CCCxOo0VVV0ooooo;f-oooooooooooo0yOoooooooo.ooooi8+oooo9BVV8oOCCC",
"CCCB: %MVVb% ooo;d*ooooOooooooo0toooooooooO.oooi8@ooo%nVVM$o@CCC",
"CCCChoO8VVVsoooo;d*oooooooooOoO0yooooooooooOo.oi7+o.OsVVV7ooCCCC",
"CCCCC,o$cVVB6ooO;f=oooooooooooo0yOoooooooooooOoi8Ooo7BVVc@o@CCCC",
"CCCCCzO.<VVVm,oo-f=oooooooooooo0yooooooooooooooi8+o,mVVV,XOCCCCC",
"CCCCCC8oOeVVVc* :f*ooooOooooOoo0yooooooooooooooi8o*xVVV0Oo$CCCCC",
"CCCCCCC-.@fVVVz$$h-oooooooooooo0yooooooooooooooa1%lVVVs@ @CCCCCC",
"CCCCCCCs+ *zVVVl4i*ooooooooooooqyoooooooooooooo0ucVVVz$ OCCCCCCC",
"CCCCCCCCtOX;vVVVMlOoooooooooooo0yOoooooooooooooyBVVVv* OCCCCCCCC",
"CCCCCCCCC9OX:zVVVNa#oooooooooooqyoooooooooooo@aNVVVz*XO&CCCCCCCC",
"CCCCCCCCCC4O.*fVVNVv7Oooooooooo0yooooooooooO8vVVVVf$ O$CCCCCCCCC",
"CCCCCCCCCCC3OX$eVVVVNc8@O .ooooqyoooooo.o@8cNVVVV0@.O%CCCCCCCCCC",
"CCCCCCCCCCCCC+.O2NVVVVNms4%Oooo9rooooO%4smBVVVVV7o @CCCCCCCCCCCC",
"CCCCCCCCCCCCCC%o=gynVVVVVBMcst7fh68tscMBVVVVVM3wXo@CCCCCCCCCCCCC",
"CCCCCCCCCCCCCCC&$i*$9mVVVVVVVBBBBBBVVVVVVVVn0$o O%CCCCCCCCCCCCCC",
"CCCCCCCCCCCCCCCCC&ooO#2dNVVVVVVVVVVVVVVVMs2@o O@CCCCCCCCCCCCCCCC",
"CCCCCCCCCCCCCCCCCCC@Ooo+$,0fcmNBVBNmcs0,@OooO@CCCCCCCCCCCCCCCCCC",
"CCCCCCCCCCCCCCCCCCCCC@OOo.oO@@%*-*%@@Oo.oO+@CCCCCCCCCCCCCCCCCCCC",
"CCCCCCCCCCCCCCCCCCCCCCCC@@+OoooooooooO++@CCCCCCCCCCCCCCCCCCCCCCC",
"CCCCCCCCCCCCCCCCCCCCCCCCCCCC%%#oXo$%%CCCCCCCCCCCCCCCCCCCCCCCCCCC"
};
