/* XPM */
static char *paymeal32[] = {
/* columns rows colors chars-per-pixel */
"32 32 105 2 ",
"   c black",
".  c #000006060606",
"X  c #000009090909",
"o  c #00000C0C0C0C",
"O  c #000011111111",
"+  c #000014141414",
"@  c #00001B1B1B1B",
"#  c #000023232323",
"$  c #000027272727",
"%  c #000028282828",
"&  c #07072A2A2A2A",
"*  c #06062C2C2C2C",
"=  c #08082B2B2B2B",
"-  c #0E0E2C2C2C2C",
";  c #12122E2E2E2E",
":  c #15152F2F2F2F",
">  c #111130303030",
",  c #171731313131",
"<  c #1B1B32323232",
"1  c #1C1C32323232",
"2  c #1D1D36363636",
"3  c #202035353535",
"4  c #262639393939",
"5  c #29293A3A3A3A",
"6  c #2B2B3C3C3C3C",
"7  c #2D2D3E3E3E3E",
"8  c #060642424242",
"9  c #29294D4D4D4D",
"0  c #313140404040",
"q  c #393946464646",
"w  c #454550505050",
"e  c #474753535353",
"r  c #4C4C63636363",
"t  c #515167676767",
"y  c #5D5D65656565",
"u  c #545469696969",
"i  c #56566B6B6B6B",
"p  c #61616A6A6A6A",
"a  c #64646C6C6C6C",
"s  c #67676F6F6F6F",
"d  c #68686E6E6E6E",
"f  c #6A6A70707070",
"g  c #6B6B73737373",
"h  c #6E6E75757575",
"j  c #6F6F77777777",
"k  c #707076767676",
"l  c #717178787878",
"z  c #74747A7A7A7A",
"x  c #76767D7D7D7D",
"c  c #77777E7E7E7E",
"v  c #7A7A80808080",
"b  c #7A7A81818181",
"n  c #828288888888",
"m  c #838388888888",
"M  c #84848A8A8A8A",
"N  c #87878C8C8C8C",
"B  c #8B8B90909090",
"V  c #8C8C98989898",
"C  c #919195959595",
"Z  c #909097979797",
"A  c #939398989898",
"S  c #97979C9C9C9C",
"D  c #9696A1A1A1A1",
"F  c #9B9BA1A1A1A1",
"G  c #9C9CA1A1A1A1",
"H  c #9F9FA5A5A5A5",
"J  c #A0A0A7A7A7A7",
"K  c #A0A0A8A8A8A8",
"L  c #A1A1ABABABAB",
"P  c #A2A2ABABABAB",
"I  c #A4A4A9A9A9A9",
"U  c #A8A8ABABABAB",
"Y  c #ABABAFAFAFAF",
"T  c #AAAAB2B2B2B2",
"R  c #ACACB0B0B0B0",
"E  c #AFAFB3B3B3B3",
"W  c #AEAEB6B6B6B6",
"Q  c #B3B3B6B6B6B6",
"!  c #B4B4B8B8B8B8",
"~  c #B7B7BABABABA",
"^  c #B8B8BBBBBBBB",
"/  c #B9B9BCBCBCBC",
"(  c #BBBBBEBEBEBE",
")  c #BDBDBFBFBFBF",
"_  c #BDBDC0C0C0C0",
"`  c #BEBEC0C0C0C0",
"'  c #BEBEC1C1C1C1",
"]  c #C1C1C3C3C3C3",
"[  c #C2C2C4C4C4C4",
"{  c #C4C4C6C6C6C6",
"}  c #C4C4C8C8C8C8",
"|  c #C8C8CBCBCBCB",
" . c #C9C9CCCCCCCC",
".. c #CBCBCDCDCDCD",
"X. c #CDCDCFCFCFCF",
"o. c #CECED1D1D1D1",
"O. c #D1D1D3D3D3D3",
"+. c #D1D1D4D4D4D4",
"@. c #D5D5D8D8D8D8",
"#. c #D7D7D9D9D9D9",
"$. c #DADADCDCDCDC",
"%. c #DFDFE0E0E0E0",
"&. c #E3E3E5E5E5E5",
"*. c #E8E8EAEAEAEA",
"=. c None",
/* pixels */
"=.=.=.=.=.=.=.=.=.=.=.=.O 9 r i i r 9 O =.=.=.=.=.=.=.=.=.=.=.=.",
"=.=.=.=.=.=.=.=.=.  t C L L F C C F H L C t   =.=.=.=.=.=.=.=.=.",
"=.=.=.=.=.=.=.  i L H v w @         @ w v J L i   =.=.=.=.=.=.=.",
"=.=.=.=.=.=.# D I y     O % 3 $ % 3 % +     y I D $ =.=.=.=.=.=.",
"=.=.=.=.=.8 T N     < , ; 6   y y   7 ; < <     N T 8 =.=.=.=.=.",
"=.=.=.=.8 W f   1 ; < 3     % Q E *     2 < ; 1   f W 8 =.=.=.=.",
"=.=.=.# T f   5 3 ;     a ! @.! ) O.! a     ; 3 5   f T # =.=.=.",
"=.=.  D N   7 o   . B X.O.L $ I C H G +. .B .   o 7   N D   =.=.",
"=.=.i I   4   w E #.| m       Y w Q $   M  .@.E w   4   I i =.=.",
"=.  L y o   B &./ a     7 q   E E c ; 0     a / &.B   o y L   =.",
"=.t H   7   ! M               I 5               m !   7   H t =.",
"=.V v   6   T X.Y E Y E Y Y E X./ Y Y Y Y E Y T o.E   6   v V =.",
"O L w + - $ 2 X.{ #.A $.{  .Y X.+.Y | [ $.A #.{ X.2 $ - + w L O ",
"9 J @ & $ 4   Y M ^ * ! M Y a Y Y p Y m ^ * ^ m Y   4 $ & @ J 9 ",
"r F   , % 3   ` m [ a ] m Q M I Y m Q M [ a { m `   3 $ ,   F r ",
"i C   , % 3   ` z / k [ k ! C J H A ! h [ k / z `   2 $ ,   C i ",
"i C   , % 1   } p ` m / d ] S G F A ` d ` M ` p }   1 % 1   A i ",
"r F   < $ 3   [ 5 Q B ^ ; ! G m m F ! , ! B ! 4 {   3 $ ;   G r ",
"9 H @ * ;   v *.` $.+.&.` %.$.o.o.$.&.) %.+.$.` *.c   ; * @ J 9 ",
"O L w O 5   Y Y p j h g x g h l l h d x g k l p E Y   5 O w J O ",
"=.C v   - l #.N   X                         o   N #.k -   v V =.",
"=.t H   - +.L 5                                 5 L +.-   H t =.",
"=.  L y . o.a s j j h h h h h h h h h l h h h l a a X.. y L   =.",
"=.=.i I   T } ` ` ` ` ` ` ` ` ] ` ` ` ` ` ` ` ` ` } E   I i =.=.",
"=.=.  D N                                             N D   =.=.",
"=.=.=.$ T h   0 1 2 2 1 1 3 1 2 3 1 2 2 3 1 2 1 0   h T # =.=.=.",
"=.=.=.=.8 W f   1 ; $ $ % % % % $ % $ $ % % ; 1   f W 8 =.=.=.=.",
"=.=.=.=.=.8 T N     < , & % % % % % $ & < 1     N T 8 =.=.=.=.=.",
"=.=.=.=.=.=.# D I y     + & , < < , & +     y I D # =.=.=.=.=.=.",
"=.=.=.=.=.=.=.  i L H v w @         @ w x J L i   =.=.=.=.=.=.=.",
"=.=.=.=.=.=.=.=.=.  t V L J F V C F J L V t   =.=.=.=.=.=.=.=.=.",
"=.=.=.=.=.=.=.=.=.=.=.=.O 9 r t i r 9 O =.=.=.=.=.=.=.=.=.=.=.=."
};
