/* XPM */
static char *_d58419adbf6487baa3fe710442c70c3[] = {
/* columns rows colors chars-per-pixel */
"128 128 61 1 ",
"  c #5FB11E",
". c #60B11F",
"X c #5FB120",
"o c #63B324",
"O c #66B529",
"+ c #6AB62D",
"@ c #6CB730",
"# c #6EB833",
"$ c #70B936",
"% c #75BC3C",
"& c #77BD40",
"* c #7ABE44",
"= c #7DBF48",
"- c #7EC04A",
"; c #81C24E",
": c #85C454",
"> c #87C558",
", c #8BC65C",
"< c #8DC85F",
"1 c #8EC761",
"2 c #8EC861",
"3 c #91C964",
"4 c #95CB6A",
"5 c #98CD6F",
"6 c #9BCE72",
"7 c #9ED077",
"8 c #9FD078",
"9 c #A2D27C",
"0 c #A6D482",
"q c #A9D586",
"w c #ACD78B",
"e c #AFD88E",
"r c #B3DA94",
"t c #B7DC9A",
"y c #B9DD9D",
"u c #BCDFA1",
"i c #BFE0A5",
"p c #C0E0A6",
"a c #C4E2AD",
"s c #C7E4B0",
"d c #C9E5B4",
"f c #CDE7B9",
"g c #CFE8BC",
"h c #D2E9BF",
"j c #D5EBC4",
"k c #D8ECC7",
"l c #D7ECC8",
"z c #DBEECD",
"x c #DFEFD1",
"c c #DFF0D3",
"v c #E1F1D5",
"b c #E6F3DC",
"n c #E8F4DF",
"m c #EBF5E3",
"M c #EFF7E8",
"N c #EFF8E9",
"B c #F2F8EC",
"V c #F6FBF2",
"C c #F9FCF6",
"Z c #FFFFFF",
"A c None",
/* pixels */
"AAAAAAAAAAAAAAAAAAAAAAAAAAAAAAAAAAAAAAAAAAAAAAAAAAAAAAZZZZZZZZZZZZZZZZZZZZAAAAAAAAAAAAAAAAAAAAAAAAAAAAAAAAAAAAAAAAAAAAAAAAAAAAAA",
"AAAAAAAAAAAAAAAAAAAAAAAAAAAAAAAAAAAAAAAAAAAAAAAAAZZZZZCmzp64* ooooo *48plmCZZZZAAAAAAAAAAAAAAAAAAAAAAAAAAAAAAAAAAAAAAAAAAAAAAAAA",
"AAAAAAAAAAAAAAAAAAAAAAAAAAAAAAAAAAAAAAAAAAAAAAZZZCbhw5:&+Ooooooooooooooo+%:5wfbCZZAAAAAAAAAAAAAAAAAAAAAAAAAAAAAAAAAAAAAAAAAAAAAA",
"AAAAAAAAAAAAAAAAAAAAAAAAAAAAAAAAAAAAAAAAAAAZZZma5-+oo ooXoooooooooooooooooo.oo+-5amZZAAAAAAAAAAAAAAAAAAAAAAAAAAAAAAAAAAAAAAAAAAA",
"AAAAAAAAAAAAAAAAAAAAAAAAAAAAAAAAAAAAAAAAZZZnu,+oo ooooooooooooooooooooooooooooooXo+,umZZAAAAAAAAAAAAAAAAAAAAAAAAAAAAAAAAAAAAAAAA",
"AAAAAAAAAAAAAAAAAAAAAAAAAAAAAAAAAAAAAAZZVs,+oooooooooooo oooooooooooooooooooooooooo o+,sVZAAAAAAAAAAAAAAAAAAAAAAAAAAAAAAAAAAAAAA",
"AAAAAAAAAAAAAAAAAAAAAAAAAAAAAAAAAAAZZZnq&o oooooooooooO+*,60qraaaaaqq96,*+oooooooooooo o&qnZZAAAAAAAAAAAAAAAAAAAAAAAAAAAAAAAAAAA",
"AAAAAAAAAAAAAAAAAAAAAAAAAAAAAAAAAZZZx9+oooooooo oo+;8ylbVZZZZZZZZZZZZZZZVnlu8;+oo oooooooo+9xZZAAAAAAAAAAAAAAAAAAAAAAAAAAAAAAAAA",
"AAAAAAAAAAAAAAAAAAAAAAAAAAAAAAAAZZn6ooooooooooO*9snCZZZZZZZZZZZZZZZZZZZZZZZZZZbs9&Oo oooooo O6mZAAAAAAAAAAAAAAAAAAAAAAAAAAAAAAAA",
"AAAAAAAAAAAAAAAAAAAAAAAAAAAAAAZZVq@ooooooo.O&0lVZZZZZZZZZZZZZZZZZZZZZZZZZZZZZZZZZVl0%o ooooooX+qVZAAAAAAAAAAAAAAAAAAAAAAAAAAAAAA",
"AAAAAAAAAAAAAAAAAAAAAAAAAAAAZZZp%o oooo oo3dCZZZZZZZZZZZZZZZZZZZZZZZZZZZZZZZZZZZZZZZVa2+oXoooo o%pZZAAAAAAAAAAAAAAAAAAAAAAAAAAAA",
"AAAAAAAAAAAAAAAAAAAAAAAAAAAZZb3o ooooX #0vZZZZZZZZZZZZZZZZZZZZZZZZZZZZZZZZZZZZZZZZZZZZZv0+.ooooooo3bZAAAAAAAAAAAAAAAAAAAAAAAAAAA",
"AAAAAAAAAAAAAAAAAAAAAAAAAAZZu@ oooooo@0mZZZZZZZZZZZZZZZZZZZZZZZZZZZZZZZZZZZZZZZZZZZZZZZZZm0+oooooo.@uZAAAAAAAAAAAAAAAAAAAAAAAAAA",
"AAAAAAAAAAAAAAAAAAAAAAAAZZB4ooooooXO9mZZZZZZZZZZZZZZZZZZZZZCCmmmmmmmCCZZZZZZZZZZZZZZZZZZZZZn9o oooo.o4BZAAAAAAAAAAAAAAAAAAAAAAAA",
"AAAAAAAAAAAAAAAAAAAAAAAZZl%.oooo o,zZZZZZZZZZZZZZZZZZCvdy6:-;$#$#$#$=-,6ydvCZZZZZZZZZZZZZZZZZz,o ooooX&lZAAAAAAAAAAAAAAAAAAAAAAA",
"AAAAAAAAAAAAAAAAAAAAAAZZp+ oooo.$aZZZZZZZZZZZZZZZCxu4=+ooooo ooooooo  oooo+=4uxCZZZZZZZZZZZZZZZa$ oooo +iZAAAAAAAAAAAAAAAAAAAAAA",
"AAAAAAAAAAAAAAAAAAAAAZZwo ooo.o4mZZZZZZZZZZZZZZzw;Oo  oooOoooooOooooooooooooXoO;wzZZZZZZZZZZZZZZm5ooooo owZAAAAAAAAAAAAAAAAAAAAA",
"AAAAAAAAAAAAAAAAAAAAZZ5 oooo @yZZZZZZZZZZZZZmy:Oo ooOooooooooooooooooooooooooooooo:ymZZZZZZZZZZZZZy+ oooo.5CAAAAAAAAAAAAAAAAAAAA",
"AAAAAAAAAAAAAAAAAAAZC5.oooo *vZZZZZZZZZZZZbq$o ooooooooooooooooooooooooooooooooooo o$qbZZZZZZZZZZZZz* oooo.5ZAAAAAAAAAAAAAAAAAAA",
"AAAAAAAAAAAAAAAAAAZN,oooooo1BZZZZZZZZZZZb9+oXoooooooooooooooooooooOooOoooooooooooooooX+9bZZZZZZZZZZZB3ooooo.,BAAAAAAAAAAAAAAAAAA",
"AAAAAAAAAAAAAAAAAZZ, ooo  0ZZZZZZZZZZZVe@ooooooooooooooooooooooooooooooooooooooooooooooo+eVZZZZZZZZZZZqooooo ,ZAAAAAAAAAAAAAAAAA",
"AAAAAAAAAAAAAAAAZZ5.ooo +rZZZZZZZZZZZs&oooooooooooooooooooooooooOoooooooooooooooooooooooo &sZZZZZZZZZZZwo.ooo.5CAAAAAAAAAAAAAAAA",
"AAAAAAAAAAAAAAAZZ5.ooooOaZZZZZZZZZZm5o.oooooooooooooooooooooooooooooooooOooooooooooooooooo o5mZZZZZZZZZZa+oooo 5ZAAAAAAAAAAAAAAA",
"AAAAAAAAAAAAAAZZq ooo.osZZZZZZZZZZh$ ooooooooooooooooOooooooooooooooooooooooooooooooooooooooo%gZZZZZZZZZZaOoooo wZAAAAAAAAAAAAAA",
"AAAAAAAAAAAAAZZpoooo.OaZZZZZZZZZCe+ oooooooooooooooooooooooooooooooooooooooooooooooooooooooooo+eZZZZZZZZZZaoooooopZAAAAAAAAAAAAA",
"AAAAAAAAAAAAAZz+.ooX rZZZZZZZZZB4oooooooooooooooooooooooooooooooooooOoooooooooooooooooooOooooo.o4BZZZZZZZZZqoooo.+zAAAAAAAAAAAAA",
"AAAAAAAAAAAAZB& oooo0ZZZZZZZZZm; ooooooooooooooooOoooooooooooooooooooooooooooOoooooooooooooooooo ;mZZZZZZZZZ9oooo.&BAAAAAAAAAAAA",
"AAAAAAAAAAAZZ4.ooo 3ZZZZZZZZZz$oooooooooooooOoooooooooooooooooOooooooooooooooooooooooooooooooooooX%zZZZZZZZZC1 ooo.4ZAAAAAAAAAAA",
"AAAAAAAAAAZZioooo *BZZZZZZZZz@.ooooooooooooooooooooooOooooooooooooooooooooooooooooooooooooooOooooo #zZZZZZZZZB& ooooiZAAAAAAAAAA",
"AAAAAAAAAAZm# ooo+cZZZZZZZZl+ ooooOoooooooooooooooooooooooOooooooooooooooooooooooooooOooooooooooooo.@zZZZZZZZZz+ooo.#nAAAAAAAAAA",
"AAAAAAAAAZZ3 ooooyZZZZZZZZn#.oooooooooooOoooooooooooooooooooooooooooooooooOooooooooooooooooooooooooo #bZZZZZZZZtoooo 2ZAAAAAAAAA",
"AAAAAAAAAZpoooo 4ZZZZZZZZB;ooooooooooooooooooooOooooooooooooooOooooOooooooooooooooooooooooooooooooooo ;BZZZZZZZZ3.ooooaAAAAAAAAA",
"AAAAAAAAZV$.ooX$mZZZZZZZC2ooooooooooooooooooooooooooooooooooooooooooooooooooooooooooooooooooooooooooooo2CZZZZZZZm$ oo $VAAAAAAAA",
"AAAAAAAZZqoooooaZZZZZZZZqooooooooooooooooooooooooooooooooooooooooooooooooOooooooooooooooooooooooooooooooqZZZZZZZZuoooooqZAAAAAAA",
"AAAAAAAZm@ooo.,ZZZZZZZZsooooooooooooooooooooooooooooooooooooooooooooooooooooooooooooooooooooooooooooooo.osZZZZZZZZ, ooo@mAAAAAAA",
"AAAAAAZZ5ooooOxZZZZZZZm@ oooooooooooooooooooooooooooooOoooooooooooooooooooooooooooooooooooooooooooooooooo@mZZZZZZZxOoooX5ZAAAAAA",
"AAAAAAZcooooX9ZZZZZZZZ, oooooooooO+oooooooooooooooooooooooooooooooooooooooooooooooOoooooooooooo+oooooooooo,ZZZZZZZZ8ooooOxAAAAAA",
"AAAAAAZ7oooo@mZZZZZZZiooooooooO3dmmj9#oooooooOoooooo6rOoooo9eooooO+r6oooo6tOoooooooooooooooo&rznwoooooooooouZZZZZZZm# ooo7AAAAAA",
"AAAAAZm@ ooX0ZZZZZZZm#ooooooo;zZZmmVZB5ooooooooooooogV#oooozmOoooo%Zkooo+nV+oooooooooooooooqZZBZvooooooooo #mZZZZZZZ0Xoo +mAAAAA",
"AAAAAZqoooo@mZZZZZZZ5ooooooo4ZZt*oo+6NZtoooooooooooosm+oOoojvOoooo&Chooo+mmoooooooooooooooaZv3#Bzooooooooooo5ZZZZZZZm@ooooqAAAAA",
"AAAAZV&Xooo9ZZZZZZZz+oooooo2ZB2oooooo#lZqooooooooooosm+oooojvooooo&Zhooo+bm+oooooooooOooo9Za+o+BxooooOoooooo+zZZZZZZZ9oooX&BAAAA",
"AAAAZsooooObZZZZZZZ,.ooooo&VV&ooooooooOzZ3oooooooooosm+oooohvOoooo%Chooo+nmooooooooooooo#Vb+oo+Bzoooooooooooo,ZZZZZZZbO.ooosAAAA",
"AAAAZ, oo 3ZZZZZZZjooooooozZ<oooooooooo$NN#ooooooooosm+oooojbooooo%Zjooo+bmooooooooooooo9Z6ooo+BxooooooooooooojZZZZZZZ1oooX,AAAA",
"AAAZn@oooodZZZZZZZ3 ooooo5ZrooOooooooooo3Zuoooooooooam+oooojvOoooo%Zhooo+mmOoooooooooooodC$ooo+Vxooooooooooooo3ZZZZZZZdoooo+bAAA",
"AAAZyoooo&CZZZZZZx+ooooo+bB+ooooooooooooojZ%oooooooosm+oooojvOoooo%Zhooo+bmOoooooooooooOnboooo@Bzooooooooooooo+xZZZZZZV% ooouAAA",
"AAAZ, ooo0ZZZZZZZ9oooooo4Z0oooooooooooooo;Zuoooooooosm+oooohvOoooo%Zhooo+bmOooooooooooo-Zaoooo+BxoooooooooooooX9ZZZZZZZ9Xooo,AAA",
"AAZn+oooolZZZZZZB%oooooolB+ooooooooooooooovV+ooOoooosm+oooojbooooo%Chooo+nmOooooooooooo3Z7oooo+Bzoooooooooooooo%BZZZZZZjOooo+vAA",
"AAZsoooo*VZZZZZZsoooooo&Zioooooooooooooooo9Z2ooooooosm+oooohvOoooo%Zhooo+nm+oooooooooootZ;oooo@BxoooooooooooooooaZZZZZZC*oooosAA",
"AAZ5oooo0ZZZZZZZ4 ooooo6Z5oooooooooooooooo=Zuooooooosm#oooojvooooo%Zhooo+bmooooooOooooozB+oooo+BxoooooOooooooooX4ZZZZZZZ8ooo.5AA",
"AZC*oooodZZZZZZm#ooooooaC$oooooooooooooooo+mboooooooam+oooojvOoooo&Cjooo+bm+oooooooooo#Clooooo+Bxooooooooooooooo$mZZZZZZdoooo=VA",
"AZb+ooo+mZZZZZZsooooooOxmOooooooooooooooooofZ$oooooosm+oooozmooooo&Zkooo+bmooooooooooo:Zwooooo+VxoooooooooooooooosZZZZZZm@oooOcA",
"AZfoooo:CZZZZZZ8oooooo@CfooooooooooOoooooooeZ-oooooosm@ooooqroooooOi9ooo+bm+oooooooooo0Z3ooooo+BzooooooooooooooOo8ZZZZZZC;oooofA",
"AZeooo.9ZZZZZZZ-oooooo*ZtooooooooooooooooooeZ3oooooosm+ooooooooooooooooo+nmooooooooooosC$ooooo+Bxoooooooooooooooo*CZZZZZZ7oooowA",
"AZ5.oooyZZZZZZb#Xooooo:Zuoooooooooooooooooo4Z1oooooosB#ooooooooooooooooo+nBOoooooooooomboooooO@BzoooooooooOoooooo#bZZZZZZuoooo5A",
"ZC:ooo+jZZZZZZdooooooo:ZyooooooOoooooooOooo4Z3ooooooaZ-oooooooooooooooooonn+ooooooooo&Zaoooooo+BxooooooooooooooooodZZZZZZzoooo:V",
"Zm%oo.+mZZZZZZeooooooo%ZuoooooooooooooooooowZ,oooooo9Z>oooooooOooooooooo@Bgoooooooooo3Z8oooooo@Bxoooooooooooooooo.rZZZZZZn+ooo&z",
"Zj@ooo&VZZZZZZ3Xoooooo+mvoooooooooooooooooopZ%oooooo,Zrooooooooooooooooo3ZwoooooooooouZ-oooooo@Bzooooooooooooooooo3ZZZZZZV*oo.@h",
"ZpOoo.:ZZZZZZZ;ooooooOofC#ooooooooooooooooovN+ooooooOmbooooooooooooOoooohZ-oooooooooovV+oooooo+BxooooooooooooOoooo;ZZZZZZZ>oooOt",
"Z8oooo6ZZZZZZV& oooooooqZ5oooooooo+ooooooo%Zaoooooooo9Z0ooooooooooooooo,Zfoooooooooo@Vzooooooo+Bzoooooooooooooooo &VZZZZZZ4oooo6",
"Z4ooooqZZZZZZb+oooooooo$ZxoooooooooooooooouZ:oooooooo+vZ,ooooooooooooo$mZ=oooooooooo,Zqooooooo+Bxooooooooooooooooo+bZZZZZZ0oooo4",
"Z*ooooqZZZZZZv@ooooooooOyZ5oooooooooooooo;Zzoooooooooo-CV,ooooooooooo$bZ6ooooooooooo9Z,ooooooo@Bxoooooooooooooooo.#cZZZZZZwoooo-",
"Z ooooeZZZZZZgOooooooooo+bC,Oooooooooooo&NC*ooooooooooo5CZ0@oooooooo3NZ6oooooooooooofC%oOooooo+BxoooooooooooooooooogZZZZZZ0oooo ",
"ZooooOaZZZZZZsooooooooooo;CZq+ooooooooo4BZ2oooooooooooOo:nZmq;$#$*9zZC6oooooooOooooomboooooooo+BzoooooooooooooooooodZZZZZZuooooo",
"ZoooooaZZZZZZdoooooooooooo;xZnq:%+o$&7lZV2ooooooooooooooo@wmZZCBBZZCp%ooooooooooooo*Zaoooooooo+BxoOoooooooOoooooooodZZZZZZaooooo",
"ZoooooaZZZZZZdooooooooooooo+wNZZCvzCZZCp%ooooooooOooooooooo+3ejZbt5$ooooooooooooooo3Z5oooooooo+BzoooooooooOoooooooodZZZZZZaooooo",
"ZoooooaZZZZZZdoooOooooooooooo+3rfZZzi7%ooooooooooooooooooooooo:ZeooooooooooooooooootZ;oooooooo+VzoooooooooooooooooOdZZZZZZsooooo",
"ZoooooaZZZZZZdoooooooooooooooooooxmooooooooooooooooooooooooooo2ZtoooooooooooooooooozB+ooooOooo+BzoooooooooooooooooodZZZZZZuOoooo",
"Z ooooqZZZZZZsoooooooooooooooooooxB+oooooooooOoooooooooooooooo<Ztooooooooooooooooo#Vjooooooooo@BxoooooooooooooooooodZZZZZZ0oooo ",
"Z*ooooqZZZZZZz+ oooooooooooooooooxB+ooooooooooooooooOooooooooo2Zrooooooooooooooooo:Zrooooooooo+Bxooooooooooooooooo@zZZZZZZqoooo-",
"Z4ooo.0ZZZZZZv@oooooOoooooooooooocN+oooooooooooooooooooooooooo<Zrooooooooooooooooo8Z<ooooooooo+Bxooooooooooooooooo@vZZZZZZ9.ooo4",
"Z9oooo6ZZZZZZm$ooooooooooooooooooxN+oooooooooooooooooooooooooo<ZtooooooooooooooOoofC%ooooooooO+BzooooooooooooOoooo$mZZZZZZ4oooo4",
"ZpOooo,ZZZZZZC-.oooooooooooooooooxN+oooOooooooOooooooooooooooo<Zrooooooooooooooooonmoooooooooo+VxooOooooooooooooo.=CZZZZZZ:oooOt",
"Zl+ooo&VZZZZZZ:ooooooooooooooooooxB+oooooooooooooooooooooooooo<Ztoooooooooooooooo&Zaoooooooooo@Bzooooooooooooooooo>ZZZZZZB%ooo+s",
"Zn%ooo+mZZZZZZ9.Oooooooooooooooooxm+oooooooooooooooooooooooooO<ZrooooOooooooooooo4Z6oooooooooo+Bxoooooooooooooooo 9ZZZZZZm+ooo%z",
"AC:oooOzZZZZZZpooooooooooooooOoooxB+ooooooooooooooOooooooooooo2ZrooooooooooooooootZ:oooooooooo+BxooooooooooooooooopZZZZZZloooo:A",
"AZ5ooooyZZZZZZlOoooooooooooooooooxB+ooooOooooooooooooooooooooo<ZroooooooOoooooooocB@oooooooooo+BzooooooOOooooooooolZZZZZZuoooo5A",
"AZwoooo9ZZZZZZV%oOoooooooooooooooxN+ooooooooooOooooooooooooooo<ZtoooooooooooOooo$CkooooooOoooo+BxooooooooooooooOo%VZZZZZZ7oooowA",
"AZgoooo:CZZZZZZ:oooooooOoOoooooooxN+ooooooooooooooooooOooooooo<Zrooooooooooooooo;Crooooooooooo@Bzoooooooooooooooo:ZZZZZZC- ooosA",
"AZb+oo.+mZZZZZZt.ooooooooooooooooxB+oooooooooooooooooooooooooo<ZroooooooOooooooo,Zrooooooooooo@BxoooooooooooooooorZZZZZZm+oooOjA",
"AAC-.ooosZZZZZZzOooooooooooooooooxB@oooooooooooooooooooooooooo<Zrooooooooooooooo&Zuooooooooooo+Bzooooooooooooooo+zZZZZZZsooo.-AA",
"AAZ5Xooo6ZZZZZZC- oooooooooooooooxB+oooooooooOoooooooooooooooo2ZrOooOooooooooooo+mmooooooooooo+Bvoooooooooooooo -CZZZZZZ6ooo 5AA",
"AAZsoooo*CZZZZZZwoooooooooooOooooxN+oooooooooooooooooooOoooooo<ZrooooooooooooooooqZqoooooooooo@BzooooooooooooooowZZZZZZC%.ooouAA",
"AAAm+oooOlZZZZZZx+oooooooooooooooxN+oooooooooooooooooooooooooo<ZrooooooooooooOoooOxC6ooooooooo@BxooooooooooooooOxZZZZZZk+ooo+zAA",
"AAAZ, ooo9ZZZZZZZ:.ooooooooooooooxN+oooooooooooooooooooooooooo<Zrooooooooooooooooo*BZr;ooooooo@Bzoooooooooooooo:ZZZZZZZ0ooo.,AAA",
"AAAZuoooo&VZZZZZZpoooooooooooooooxN+oooooooooooooooooooooooooo<Zroooooooooooooooooo%hZZnvbg#oo+BxoooooooooooooopZZZZZZV%.oootAAA",
"AAAAn+oooodZZZZZZV* oooooooooooooxN+ooooooooooooooOooooooooooo<ZrooooooooOooooooooooo,azzzh%oo@BzooooooOooooo &CZZZZZZsoooo+lAAA",
"AAAAZ,ooo 3ZZZZZZZrooooooooooooooxB+ooooooOooooooooooooooooOoo3Zrooooooooooooooooooooooooooooo+BxooooooooooooorZZZZZZZ,oooo,AAAA",
"AAAAZsoooo+bZZZZZZB$oooooooOoooooxB+oooooooooooooooooooooooooo<ZroooOooooooooooooooooooooooooo+Bxoooooooooooo#BZZZZZZz+oooouAAAA",
"AAAAAV%Xooo9ZZZZZZZroooooooooooooxN+ooooooooooooooooooOooooooo<ZrooooOoooooooooooooooooooooooo@BzoooooooooooorZZZZZZZ8 ooX%AAAAA",
"AAAAAZq oo @mZZZZZZC& oooooooooooxN+ooooooooOooooooooooooooooo<ZrOooooooooooOooooooooooooooooo+Vxoooooooooo -CZZZZZZn# ooX0AAAAA",
"AAAAAAm# ooo0ZZZZZZZsooooooooooooxB+oooooooooooooooooooooooooo<Zrooooooooooooooooooooooooooooo+BxooooooooooosZZZZZZZ9oooo@zAAAAA",
"AAAAAAZ7ooo @nZZZZZZZ2oooooooooooxB@oooooooooooooooooooooooooo<ZroooooooooooooooooooooOooooooo+Bzooooooooo.2ZZZZZZZm+ooo 6AAAAAA",
"AAAAAAZcooooo6ZZZZZZZn+oOooooooooxB+oooOoooooooooooOoooooooooo2ZrOoooooooooooooooooooooooooooo+Bzoooooooo @nZZZZZZZ5XoooOfAAAAAA",
"AAAAAAAZ5ooooocZZZZZZZiooooooooooxB+oooooooooooooooooooooooooo<ZrooOoooooooooooooooooooooOoooo+BxoooooooooiZZZZZZZzOoooo5AAAAAAA",
"AAAAAAAZm@.ooX,ZZZZZZZZ4 ooooooooxN+oooooooooooooooooooooooooo<ZroooooooooooooooOooooooooooooo#VzooooooOo4ZZZZZZZZ:Xooo@xAAAAAAA",
"AAAAAAAAZwoooooaZZZZZZZB*ooooooooxN+oooooooOoooooooooooOoooooo<ZrooooooooooOoooooooooooooooooo+Bxooooooo*BZZZZZZZuooooo0AAAAAAAA",
"AAAAAAAAAV% ooX$mZZZZZZZz+XooooooxB+ooooooooooooooooooooooooOo<ZtooooooooooooooooOoooooooooooo+VxoooooX+zZZZZZZZm$.oo.%AAAAAAAAA",
"AAAAAAAAAZaoooo 4ZZZZZZZZaoooooooxN+oooooooooooooooooOoooooooo<Ztooooooooooooooooooooooooooooo+BzoooooOaZZZZZZZZ4 ooooyAAAAAAAAA",
"AAAAAAAAAAZ2 ooooyZZZZZZZZtooooooxN+oooooooooooooooooooooooooo2Zrooooooooooooooooooooooooooooo+BxoooootZZZZZZZZyoooo.2AAAAAAAAAA",
"AAAAAAAAAAZm@ oo +zZZZZZZZZ8oooooxN+ooooooooooOooooooooooooooo<ZtooooooooOoooooooooooooooooooo+Bzooo 8ZZZZZZZZz+.ooo#zAAAAAAAAAA",
"AAAAAAAAAAAZpoooo &BZZZZZZZZ7o.ooxB+oooooooooooooooooooooooooo<ZrooooooooooooooOooooOooooooooo+Bzooo6ZZZZZZZZB% ooootAAAAAAAAAAA",
"AAAAAAAAAAAAZ4.ooo 2ZZZZZZZZZ7.ooxN+oooooooooooooooooooooooooo<ZroooooOooooooooooooooooooooooo@Bz o8ZZZZZZZZZ,.ooo.4AAAAAAAAAAAA",
"AAAAAAAAAAAAAB&.ooo qZZZZZZZZZeoXcN+ooooOooooooooooooooooooooo<Zrooooooooooooooooooooooooooooo+BzowZZZZZZZZZ0 ooo %AAAAAAAAAAAAA",
"AAAAAAAAAAAAAZz+oooooqZZZZZZZZZuOzB@ooooooooooooooOooooooooooo<Zrooooooooooooooooooooooooooooo+BktZZZZZZZZZqooooo+gAAAAAAAAAAAAA",
"AAAAAAAAAAAAAAZpooooooaZZZZZZZZZfvm+oooooooooooooooooOoooooooo2ZtoooooooooooOoooooooooooooooooonZZZZZZZZZZaooooootAAAAAAAAAAAAAA",
"AAAAAAAAAAAAAAAZw.oooo+sZZZZZZZZZCnooooooooooooooooooooooooooo<Zrooooooooooooooooooooooooooooo2VZZZZZZZZZaooooo 0AAAAAAAAAAAAAAA",
"AAAAAAAAAAAAAAAAC5.oooXOaZZZZZZZCBCrO oooooooooooooooooooooooo<ZroooooooooooooooooOoooooooooOeCZZZZZZZZZpooooo 5AAAAAAAAAAAAAAAA",
"AAAAAAAAAAAAAAAAAZ5.oooXoeZZZZZZCNZZz:o oooooooooooooooooooooo<Zroooooooooooooooooooooooo o:zZZZZZZZZZZwooooo 5AAAAAAAAAAAAAAAAA",
"AAAAAAAAAAAAAAAAAAZ, ooo oqCZZZZCBZZZCy#ooooooooOooooooooooooo<Zroooooooooooooooooooooooo#yCZZZZZZZZZC0ooooo ,AAAAAAAAAAAAAAAAAA",
"AAAAAAAAAAAAAAAAAAAm,.ooooo,BZZZCBZZZZZB0+oXoooooooooooooooooo<Zroooooooooooooooooooooo+0BZZZZZZZZZZV1 ooooo,AAAAAAAAAAAAAAAAAAA",
"AAAAAAAAAAAAAAAAAAAAZ5 oooo.*zZZCBZZZZZZZb9@o oooooooooooooooo2ZrOoooooOooooooooooooo#9nZZZZZZZZZZZz&ooooo 4AAAAAAAAAAAAAAAAAAAA",
"AAAAAAAAAAAAAAAAAAAAAC5 oooo OyZZNZZZZZZZZZmr&o.oooooooooooOoo2Zrooooooooooooooo oO%emZZZZZZZZZZZZy+ oooo 4AAAAAAAAAAAAAAAAAAAAA",
"AAAAAAAAAAAAAAAAAAAAAAZwo ooooo3mCZZZZZZZZZZZVf4$o ooooooooooo<Zrooooooooooooo.o$4fVZZZZZZZZZZZZV5oXoooooqAAAAAAAAAAAAAAAAAAAAAA",
"AAAAAAAAAAAAAAAAAAAAAAAZi+ oooo $xZZZZZZZZZZZZZZNa5&Ooo  ooooo2ZrOoooooo. .oo*5amZZZZZZZZZZZZZCZlXoooo +tAAAAAAAAAAAAAAAAAAAAAAA",
"AAAAAAAAAAAAAAAAAAAAAAAAZz% oooo zVlZZZZZZZZZZZZZZZVza7:&OOooo:ZeoooooO+&:7azVZZZZZZZZZZZZZZZl1mzoooo.%sAAAAAAAAAAAAAAAAAAAAAAAA",
"AAAAAAAAAAAAAAAAAAAAAAAAAAB4oXooovm+6mZZZZZZZZZZZZZZZZZZVbgsawpZgwweasgvVZZZZZZZZZZZZZZZZZZn9OoBzoo.o4AAAAAAAAAAAAAAAAAAAAAAAAAA",
"AAAAAAAAAAAAAAAAAAAAAAAAAAAZu@XooxBOo+0nZZZZZZZZZZZZZZZZZZZZZZZCVCZZZZZZZZZZZZZZZZZZZZZZZn9#oo@BxoX@tAAAAAAAAAAAAAAAAAAAAAAAAAAA",
"AAAAAAAAAAAAAAAAAAAAAAAAAAAAZb3o bC+oXo@0xZZZZZZZZZZZZZZZZZZZZZCBZZZZZZZZZZZZZZZZZZZZZZz9#oooo@Czo2lAAAAAAAAAAAAAAAAAAAAAAAAAAAA",
"AAAAAAAAAAAAAAAAAAAAAAAAAAAAAAZp%rjOooo o+2aBZZZZZZZZZZZZZZZZZVVBZZZZZZZZZZZZZZZZZZZBs2+..ooooX,4tAAAAAAAAAAAAAAAAAAAAAAAAAAAAAA",
"AAAAAAAAAAAAAAAAAAAAAAAAAAAAAAAAB0@ ooooo.oo&0jVZZZZZZZZZZZZZZZZZZZZZZZZZZZZZZZZZCh9&o oooooXo+8AAAAAAAAAAAAAAAAAAAAAAAAAAAAAAAA",
"AAAAAAAAAAAAAAAAAAAAAAAAAAAAAAAAAZb6O.oooooo.oo&6abZZZZZZZZZZZZZZZZZZZZZZZZZZCma7*O .ooooo. O6zAAAAAAAAAAAAAAAAAAAAAAAAAAAAAAAAA",
"AAAAAAAAAAAAAAAAAAAAAAAAAAAAAAAAAAAZz9@o ooooooooO+;9yznVZZZZZZZZZZZZZZZVmzu5;@oo.oooooooo+9dAAAAAAAAAAAAAAAAAAAAAAAAAAAAAAAAAAA",
"AAAAAAAAAAAAAAAAAAAAAAAAAAAAAAAAAAAAAAnq&o.oooooooooooo+*:59q0iaaau0q04:*+oooXoooooooo.o%0zAAAAAAAAAAAAAAAAAAAAAAAAAAAAAAAAAAAAA",
"AAAAAAAAAAAAAAAAAAAAAAAAAAAAAAAAAAAAAAAABs,+oooooooooooo oo.oooOooooooooooooooooooo.o+,iAAAAAAAAAAAAAAAAAAAAAAAAAAAAAAAAAAAAAAAA",
"AAAAAAAAAAAAAAAAAAAAAAAAAAAAAAAAAAAAAAAAAAAbu,+oXooooooooooooooooooooooooooooooXoo+,tzAAAAAAAAAAAAAAAAAAAAAAAAAAAAAAAAAAAAAAAAAA",
"AAAAAAAAAAAAAAAAAAAAAAAAAAAAAAAAAAAAAAAAAAAAAAvs5-Ooo  oooooooooooooooo.ooooooO=5uzAAAAAAAAAAAAAAAAAAAAAAAAAAAAAAAAAAAAAAAAAAAAA",
"AAAAAAAAAAAAAAAAAAAAAAAAAAAAAAAAAAAAAAAAAAAAAAAAACvfw5:%+OoooooooooooooO+%:5walAAAAAAAAAAAAAAAAAAAAAAAAAAAAAAAAAAAAAAAAAAAAAAAAA",
"AAAAAAAAAAAAAAAAAAAAAAAAAAAAAAAAAAAAAAAAAAAAAAAAAAAAAACzjy54*oooooo.-44yszAAAAAAAAAAAAAAAAAAAAAAAAAAAAAAAAAAAAAAAAAAAAAAAAAAAAAA"
};
